# xmcd
#
# Track frame offsets: 
#        150
#        13937
#        26600
#        38507
#        51592
#        62972
#        78535
#        95020
#        107567
#        118792
#        128275
#        137675
#
# Disc length: 1946 seconds
#
# Revision: 5
# Processed by: cddbd v1.5.2PL0 Copyright (c) Steve Scherf et al.
# Submitted via: ExactAudioCopy v0.95a5
#
DISCID=a007980c
DTITLE=The Rolling Stones - 12 X 5 (SACD Remastered)
DYEAR=1964
DGENRE=Rock/Blues
TTITLE0=The Rolling Stones - Around And Around
TTITLE1=Rolling Stones - Confessin' The Blues
TTITLE2=Rolling Stones - Empty Heart
TTITLE3=Rolling Stones - Time Is On My Side
TTITLE4=Rolling Stones - Good Times, Bad Times
TTITLE5=Rolling Stones - It's All Over Now
TTITLE6=Rolling Stones - 2120 South Michigan Avenue
TTITLE7=Rolling Stones - Under The Boardwalk
TTITLE8=Rolling Stones - Congratulations
TTITLE9=Rolling Stones - Grown Up Wrong
TTITLE10=Rolling Stones - If You Need Me
TTITLE11=Rolling Stones - Susie Q
EXTD=YEAR: 1964
EXTT0=
EXTT1=
EXTT2=
EXTT3=
EXTT4=
EXTT5=
EXTT6=
EXTT7=
EXTT8=
EXTT9=
EXTT10=
EXTT11=
PLAYORDER=
